<?xml version="1.0" standalone="no"?>
<!DOCTYPE svg PUBLIC "-//W3C//DTD SVG 20010904//EN"
 "http://www.w3.org/TR/2001/REC-SVG-20010904/DTD/svg10.dtd">
<svg version="1.0" xmlns="http://www.w3.org/2000/svg"
 width="1021.000000pt" height="1280.000000pt" viewBox="0 0 1021.000000 1280.000000"
 preserveAspectRatio="xMidYMid meet">
<metadata>
Created by potrace 1.15, written by Peter Selinger 2001-2017
</metadata>
<g transform="translate(0.000000,1280.000000) scale(0.100000,-0.100000)"
fill="#009688" stroke="none">
<path d="M5174 10309 c-1001 -1370 -1824 -2498 -1831 -2507 -10 -13 -12 499
-13 2406 0 1332 -2 2422 -5 2422 -2 0 -438 -52 -967 -115 -1455 -175 -2207
-264 -2268 -271 -30 -3 -63 -8 -72 -10 -17 -5 -18 -302 -18 -6060 0 -5845 1
-6054 18 -6054 10 0 711 83 1558 184 846 102 1587 190 1646 197 l108 13 2
2455 3 2455 1825 -2712 1825 -2711 69 -1 c56 0 105 11 265 59 184 56 411 124
1299 392 202 61 509 153 682 205 173 53 434 131 580 175 146 44 280 85 298 90
l32 11 0 104 0 104 -1906 2722 c-1049 1497 -1907 2727 -1908 2734 -1 7 857
1160 1907 2563 l1907 2551 0 107 0 108 -343 97 c-188 53 -630 179 -982 278
-352 100 -893 253 -1202 341 -463 131 -573 159 -626 159 l-65 0 -1818 -2491z"/>
</g>
</svg>
